<svg width="165" height="178" viewBox="0 0 165 178" fill="none" xmlns="http://www.w3.org/2000/svg">
<rect x="0.5" y="0.5" width="164" height="177" rx="70.5" stroke="#3BC6C5"/>
<path d="M100.516 40.25C100.4 40.25 100.283 40.2627 100.167 40.2754C99.6883 40.3643 99.2612 40.5991 98.9378 40.9482L89.7378 50.0508L82.5823 41.1514C82.1618 40.6372 81.5342 40.3389 80.8743 40.3325C80.8096 40.3325 80.7384 40.3389 80.6673 40.3452C79.9815 40.4277 79.3798 40.8276 79.0369 41.4243L73.5829 50.3936L60.1582 42.77C59.8089 42.5669 59.4271 42.4653 59.039 42.4653C58.6055 42.4653 58.172 42.5923 57.7968 42.8398C57.0916 43.3223 56.7422 44.1602 56.8845 44.998L58.5925 55.04L46.3259 53.2881C46.2224 53.2754 46.1189 53.269 46.0154 53.269C45.2973 53.269 44.6115 53.6245 44.2039 54.2339C43.7445 54.9131 43.7186 55.8081 44.1392 56.5254L49.4573 65.2852L38.4846 70.7441C37.65 71.1631 37.1778 72.0454 37.3007 72.9658C37.4236 73.8735 38.1223 74.6099 39.0281 74.7939L47.3417 76.4126L43.9386 84.8359C43.5634 85.6992 43.7963 86.7021 44.5144 87.3179C44.9155 87.667 45.4331 87.8511 45.9507 87.8511C46.3389 87.8511 46.7271 87.7495 47.0764 87.5337L47.2252 87.4512C47.5228 87.4512 47.8269 87.4004 48.0987 87.2354L48.1633 87.1909V92.3262C48.1698 92.4595 48.1957 92.5928 48.2345 92.7324C48.3574 93.3608 48.6356 93.9702 49.0044 94.5098C49.0432 94.5605 49.0756 94.6113 49.1144 94.6621C49.2244 94.8589 49.3732 95.0176 49.5608 95.1572C49.8714 95.4683 50.2143 95.7539 50.6218 95.9634C50.2531 96.249 49.8261 96.6172 49.4573 97.1123C48.3704 98.6167 47.7363 100.991 47.9628 103.581C48.8297 111.35 53.8632 114.124 55.39 114.771C56.0435 118.44 57.7709 122.776 61.0446 127.314C64.3183 132.272 79.5803 139.375 82.854 139.375C84.9567 139.375 92.0022 136.341 97.6503 132.919C100.775 131.015 103.499 129.003 104.663 127.308C107.711 122.776 109.458 118.225 110.117 114.771C111.638 114.118 116.658 111.35 117.752 103.581C117.972 100.991 117.273 98.6167 116.186 97.106C115.863 96.6743 115.552 96.2935 115.229 96.0269C116.62 95.4238 117.596 94.1543 117.888 92.7261C117.92 92.5864 117.946 92.4531 117.952 92.3198V87.8701H118.004C118.735 87.8701 119.414 87.5083 119.822 86.9116C120.236 86.2896 120.301 85.5088 119.997 84.8359L116.458 76.0698L125.315 72.5659C126.13 72.2549 126.693 71.4868 126.719 70.6172C126.745 69.7476 126.253 68.9478 125.451 68.5859L114.342 63.0571L119.725 52.0693C120.12 51.2949 120.01 50.3682 119.447 49.7017C119.026 49.2129 118.412 48.9463 117.778 48.9463C117.564 48.9463 117.351 48.9717 117.137 49.0415L104.463 52.6787L102.69 42.1606C102.619 41.5703 102.315 41.0435 101.836 40.6816C101.454 40.396 100.989 40.25 100.516 40.25ZM81.036 44.4839L87.137 52.0693C87.7257 52.7993 88.6056 53.2437 89.5502 53.3008C89.6149 53.3008 89.6796 53.3008 89.7378 53.3008C90.6177 53.3008 91.4652 52.958 92.0863 52.3423L99.7594 44.7505L101.189 53.2119C101.345 54.1323 101.888 54.9385 102.69 55.4336C103.227 55.7637 103.842 55.9351 104.456 55.9351C104.767 55.9351 105.084 55.8843 105.388 55.8018L115.668 52.8501L111.353 61.6543C110.57 63.2476 111.237 65.1646 112.841 65.9644L121.834 70.4395L115.209 73.061C113.521 73.7275 112.699 75.6064 113.372 77.2695L115.837 83.3633L104.411 76.3364C104.146 76.1714 103.835 76.0889 103.531 76.0889H97.5209C97.2233 76.0508 96.9257 76 96.6151 76H69.0412C68.7306 76 68.433 76.0508 68.1354 76.0889H60.4623C60.1582 76.0889 59.8541 76.1714 59.5889 76.3364L48.0792 83.4141L50.4278 77.606C50.7901 76.7109 50.7254 75.7017 50.2531 74.8574C49.7872 74.0068 48.9527 73.4038 47.9887 73.2197L42.8452 72.2231L50.9583 68.186C51.7735 67.7798 52.3881 67.0562 52.6404 66.1929C52.8927 65.3296 52.7698 64.3965 52.304 63.6284L48.1892 56.8364L58.1138 58.2583C58.2755 58.2773 58.4308 58.29 58.5861 58.29C59.4724 58.29 60.3264 57.9409 60.954 57.3188C61.698 56.5762 62.028 55.5288 61.8533 54.5068L60.5399 46.7437L71.9267 53.2056C72.4507 53.4976 73.0136 53.6436 73.5764 53.6436C74.7086 53.6436 75.8085 53.0723 76.4231 52.0566L81.036 44.4839ZM65.4375 66.3071C64.5253 66.3071 63.7813 67.0371 63.7813 67.9321V71.2012C63.7813 72.0962 64.5253 72.8262 65.4375 72.8262C66.3498 72.8262 67.0938 72.0962 67.0938 71.2012V67.9321C67.0938 67.0371 66.3498 66.3071 65.4375 66.3071ZM73.7188 66.3071C72.8065 66.3071 72.0625 67.0371 72.0625 67.9321V71.2012C72.0625 72.0962 72.8065 72.8262 73.7188 72.8262C74.631 72.8262 75.375 72.0962 75.375 71.2012V67.9321C75.375 67.0371 74.631 66.3071 73.7188 66.3071ZM82 66.3071C81.0878 66.3071 80.3438 67.0371 80.3438 67.9321V71.2012C80.3438 72.0962 81.0878 72.8262 82 72.8262C82.9123 72.8262 83.6563 72.0962 83.6563 71.2012V67.9321C83.6563 67.0371 82.9123 66.3071 82 66.3071ZM90.2813 66.3071C89.369 66.3071 88.625 67.0371 88.625 67.9321V71.2012C88.625 72.0962 89.369 72.8262 90.2813 72.8262C91.1935 72.8262 91.9375 72.0962 91.9375 71.2012V67.9321C91.9375 67.0371 91.1935 66.3071 90.2813 66.3071ZM98.5625 66.3071C97.6503 66.3071 96.9063 67.0371 96.9063 67.9321V71.2012C96.9063 72.0962 97.6503 72.8262 98.5625 72.8262C99.4748 72.8262 100.219 72.0962 100.219 71.2012V67.9321C100.219 67.0371 99.4748 66.3071 98.5625 66.3071ZM60.9475 79.3389H63.1149C62.5003 80.3545 62.125 81.5225 62.125 82.7856V88.7144C62.125 90.0156 62.5132 91.2153 63.1666 92.25H51.5535C51.5341 92.1929 51.4953 92.1421 51.4823 92.085C51.4823 92.0786 51.4823 92.0723 51.4823 92.0659V86.9243C51.4823 86.3784 51.327 85.8643 51.0812 85.4009L60.9475 79.3389ZM68.2648 79.3389H97.385C99.0025 79.688 100.219 81.0972 100.219 82.7856V88.7144C100.219 90.6631 98.6013 92.25 96.6087 92.25H69.0412C67.055 92.25 65.4375 90.6631 65.4375 88.7144V82.7856C65.4375 81.0972 66.6538 79.688 68.2648 79.3389ZM102.541 79.3389H103.059L114.899 86.6133C114.73 87.0068 114.64 87.4385 114.64 87.8701V92.0659C114.633 92.0723 114.633 92.0786 114.633 92.085C114.62 92.1484 114.582 92.1929 114.556 92.25H102.49C103.143 91.2153 103.531 90.0156 103.531 88.708V82.7856C103.531 81.5225 103.156 80.3545 102.541 79.3389ZM53.8826 95.5H111.955C111.948 95.519 111.942 95.5381 111.935 95.5571C111.774 96.668 112.201 97.7725 113.068 98.4961C113.113 98.5342 113.229 98.6548 113.475 98.9849C114.025 99.7402 114.595 101.295 114.452 103.225C113.54 109.471 109.587 111.452 108.798 111.788C107.788 112.213 107.057 113.108 106.857 114.175C106.837 114.302 106.798 114.435 106.773 114.568C104.858 112.994 100.969 110.29 96.9063 110.29C95.9876 110.29 95.25 111.014 95.25 111.915C95.25 112.816 95.9876 113.54 96.9063 113.54C101.118 113.54 105.627 117.907 105.673 117.952C105.692 117.971 105.718 117.977 105.737 117.996C105.188 119.494 104.528 121.018 103.706 122.522C102.224 120.802 99.4489 118.098 95.7741 116.892C94.9071 116.606 93.969 117.069 93.6779 117.92C93.3932 118.771 93.859 119.691 94.726 119.97C98.5755 121.233 101.273 124.674 101.894 125.512C101.157 126.565 99.4812 127.86 97.4562 129.174C96.6087 127.848 95.2177 125.867 93.1085 123.798C92.4616 123.163 91.4199 123.163 90.7665 123.792C90.1195 124.426 90.1195 125.455 90.7665 126.089C92.6492 127.943 93.8978 129.727 94.6419 130.895C89.9578 133.567 84.5685 135.954 82.8476 136.119C81.049 135.96 75.6403 133.618 70.9756 130.945C71.7132 129.784 72.9812 127.975 74.8898 126.089C75.5368 125.455 75.5368 124.426 74.8898 123.792C74.2428 123.163 73.1947 123.157 72.5477 123.798C70.4127 125.899 69.0088 127.898 68.1677 129.225C66.1751 127.917 64.5382 126.616 63.8266 125.537C63.8136 125.518 63.8007 125.505 63.7813 125.48C64.4477 124.591 67.1261 121.221 70.9303 119.97C71.7973 119.691 72.2696 118.771 71.9784 117.92C71.6873 117.069 70.7492 116.606 69.8822 116.892C66.1686 118.104 63.3737 120.865 61.905 122.579C60.954 120.948 60.2553 119.45 59.7506 118.098C59.8283 118.047 59.9124 118.015 59.9835 117.945C61.2322 116.72 65.237 113.54 68.75 113.54C69.6687 113.54 70.4063 112.816 70.4063 111.915C70.4063 111.014 69.6687 110.29 68.75 110.29C64.6029 110.29 60.637 113.108 58.7608 114.664C58.7349 114.524 58.6767 114.34 58.6508 114.207C58.4567 113.134 57.7256 112.22 56.7034 111.782C55.6035 111.318 51.9546 109.312 51.2559 103.263C51.0941 101.251 51.6441 99.7021 52.1293 99.0293C52.2846 98.8198 52.5045 98.6357 52.6792 98.4961C53.5591 97.8169 54.0249 96.7505 53.9149 95.6523C53.9149 95.6016 53.8891 95.5508 53.8826 95.5ZM72.0625 98.8896C70.2445 98.9087 68.7888 100.356 68.7888 102.146C68.7888 103.93 70.2445 105.383 72.0625 105.402C73.8805 105.383 75.3362 103.93 75.3362 102.146C75.3362 100.356 73.8805 98.9087 72.0625 98.8896ZM93.5938 98.8896C91.7758 98.9087 90.3201 100.356 90.3201 102.146C90.3201 103.93 91.7758 105.383 93.5938 105.402C95.4118 105.383 96.8675 103.93 96.8675 102.146C96.8675 100.356 95.4118 98.9087 93.5938 98.8896Z" fill="#3BC6C5"/>
</svg>
