<svg width="355" height="96" viewBox="0 0 355 96" fill="none" xmlns="http://www.w3.org/2000/svg">
<g filter="url(#filter0_i)">
<g filter="url(#filter1_i)">
<path d="M24.512 70L10.752 54.512V70H4.928V22.64H10.752V50.48L24.256 34.928H32.384L15.872 52.4L32.448 70H24.512ZM69.8655 51.12C69.8655 52.2293 69.8015 53.4027 69.6735 54.64H41.6415C41.8548 58.096 43.0282 60.8053 45.1615 62.768C47.3375 64.688 49.9615 65.648 53.0335 65.648C55.5508 65.648 57.6415 65.072 59.3055 63.92C61.0122 62.7253 62.2068 61.1467 62.8895 59.184H69.1615C68.2228 62.5547 66.3455 65.3067 63.5295 67.44C60.7135 69.5307 57.2148 70.576 53.0335 70.576C49.7055 70.576 46.7188 69.8293 44.0735 68.336C41.4708 66.8427 39.4228 64.7307 37.9295 62C36.4362 59.2267 35.6895 56.0267 35.6895 52.4C35.6895 48.7733 36.4148 45.5947 37.8655 42.864C39.3162 40.1333 41.3428 38.0427 43.9455 36.592C46.5908 35.0987 49.6202 34.352 53.0335 34.352C56.3615 34.352 59.3055 35.0773 61.8655 36.528C64.4255 37.9787 66.3882 39.984 67.7535 42.544C69.1615 45.0613 69.8655 47.92 69.8655 51.12ZM63.8495 49.904C63.8495 47.6853 63.3588 45.7867 62.3775 44.208C61.3962 42.5867 60.0522 41.3707 58.3455 40.56C56.6815 39.7067 54.8255 39.28 52.7775 39.28C49.8335 39.28 47.3162 40.2187 45.2255 42.096C43.1775 43.9733 42.0042 46.576 41.7055 49.904H63.8495ZM47.5935 30.192C46.6548 30.192 45.8442 29.872 45.1615 29.232C44.5215 28.592 44.2015 27.8027 44.2015 26.864C44.2015 25.9253 44.5215 25.136 45.1615 24.496C45.8442 23.8133 46.6548 23.472 47.5935 23.472C48.4895 23.472 49.2575 23.8133 49.8975 24.496C50.5802 25.136 50.9215 25.9253 50.9215 26.864C50.9215 27.8027 50.5802 28.592 49.8975 29.232C49.2575 29.872 48.4895 30.192 47.5935 30.192ZM57.9615 30.192C57.0228 30.192 56.2335 29.872 55.5935 29.232C54.9535 28.592 54.6335 27.8027 54.6335 26.864C54.6335 25.9253 54.9535 25.136 55.5935 24.496C56.2335 23.8133 57.0228 23.472 57.9615 23.472C58.9002 23.472 59.6895 23.8133 60.3295 24.496C61.0122 25.136 61.3535 25.9253 61.3535 26.864C61.3535 27.8027 61.0122 28.592 60.3295 29.232C59.6895 29.872 58.9002 30.192 57.9615 30.192ZM83.377 40.624C84.401 38.6187 85.8517 37.0613 87.729 35.952C89.649 34.8427 91.9743 34.288 94.705 34.288V40.304H93.169C86.641 40.304 83.377 43.8453 83.377 50.928V70H77.553V34.928H83.377V40.624ZM121.012 70L107.252 54.512V70H101.428V22.64H107.252V50.48L120.756 34.928H128.884L112.372 52.4L128.948 70H121.012ZM165.47 34.928V70H159.646V64.816C158.536 66.608 156.979 68.016 154.974 69.04C153.011 70.0213 150.835 70.512 148.446 70.512C145.715 70.512 143.262 69.9573 141.086 68.848C138.91 67.696 137.182 65.9893 135.902 63.728C134.664 61.4667 134.046 58.7147 134.046 55.472V34.928H139.806V54.704C139.806 58.16 140.68 60.8267 142.43 62.704C144.179 64.5387 146.568 65.456 149.598 65.456C152.712 65.456 155.166 64.496 156.958 62.576C158.75 60.656 159.646 57.8613 159.646 54.192V34.928H165.47ZM207.303 51.12C207.303 52.2293 207.239 53.4027 207.111 54.64H179.079C179.292 58.096 180.466 60.8053 182.599 62.768C184.775 64.688 187.399 65.648 190.471 65.648C192.988 65.648 195.079 65.072 196.743 63.92C198.45 62.7253 199.644 61.1467 200.327 59.184H206.599C205.66 62.5547 203.783 65.3067 200.967 67.44C198.151 69.5307 194.652 70.576 190.471 70.576C187.143 70.576 184.156 69.8293 181.511 68.336C178.908 66.8427 176.86 64.7307 175.367 62C173.874 59.2267 173.127 56.0267 173.127 52.4C173.127 48.7733 173.852 45.5947 175.303 42.864C176.754 40.1333 178.78 38.0427 181.383 36.592C184.028 35.0987 187.058 34.352 190.471 34.352C193.799 34.352 196.743 35.0773 199.303 36.528C201.863 37.9787 203.826 39.984 205.191 42.544C206.599 45.0613 207.303 47.92 207.303 51.12ZM201.287 49.904C201.287 47.6853 200.796 45.7867 199.815 44.208C198.834 42.5867 197.49 41.3707 195.783 40.56C194.119 39.7067 192.263 39.28 190.215 39.28C187.271 39.28 184.754 40.2187 182.663 42.096C180.615 43.9733 179.442 46.576 179.143 49.904H201.287ZM227.407 70.576C224.719 70.576 222.308 70.128 220.175 69.232C218.041 68.2933 216.356 67.0133 215.119 65.392C213.881 63.728 213.199 61.8293 213.071 59.696H219.087C219.257 61.4453 220.068 62.8747 221.519 63.984C223.012 65.0933 224.953 65.648 227.343 65.648C229.561 65.648 231.311 65.1573 232.591 64.176C233.871 63.1947 234.511 61.9573 234.511 60.464C234.511 58.928 233.828 57.7973 232.463 57.072C231.097 56.304 228.985 55.5573 226.127 54.832C223.524 54.1493 221.391 53.4667 219.727 52.784C218.105 52.0587 216.697 51.0133 215.503 49.648C214.351 48.24 213.775 46.4053 213.775 44.144C213.775 42.352 214.308 40.7093 215.375 39.216C216.441 37.7227 217.956 36.5493 219.919 35.696C221.881 34.8 224.121 34.352 226.639 34.352C230.521 34.352 233.657 35.3333 236.047 37.296C238.436 39.2587 239.716 41.9467 239.887 45.36H234.063C233.935 43.5253 233.188 42.0533 231.823 40.944C230.5 39.8347 228.708 39.28 226.447 39.28C224.356 39.28 222.692 39.728 221.455 40.624C220.217 41.52 219.599 42.6933 219.599 44.144C219.599 45.296 219.961 46.256 220.687 47.024C221.455 47.7493 222.393 48.3467 223.503 48.816C224.655 49.2427 226.233 49.7333 228.239 50.288C230.756 50.9707 232.804 51.6533 234.383 52.336C235.961 52.976 237.305 53.9573 238.415 55.28C239.567 56.6027 240.164 58.3307 240.207 60.464C240.207 62.384 239.673 64.112 238.607 65.648C237.54 67.184 236.025 68.4 234.063 69.296C232.143 70.1493 229.924 70.576 227.407 70.576ZM251.436 29.232C250.327 29.232 249.388 28.848 248.62 28.08C247.852 27.312 247.468 26.3733 247.468 25.264C247.468 24.1547 247.852 23.216 248.62 22.448C249.388 21.68 250.327 21.296 251.436 21.296C252.503 21.296 253.399 21.68 254.124 22.448C254.892 23.216 255.276 24.1547 255.276 25.264C255.276 26.3733 254.892 27.312 254.124 28.08C253.399 28.848 252.503 29.232 251.436 29.232ZM254.252 34.928V70H248.428V34.928H254.252Z" fill="#3BC6C5"/>
</g>
<g clip-path="url(#clip0)" filter="url(#filter2_i)">
<path d="M345.534 15.5732C332.995 2.84927 312.636 2.82057 300.062 15.5093C287.929 27.7526 287.416 47.4724 298.895 60.3451L296.439 62.8299C294.455 60.8222 291.238 60.8217 289.254 62.8292C289.254 62.8295 289.254 62.8297 289.254 62.8299L272.488 79.7948C270.504 81.8023 270.504 85.0574 272.488 87.0651C272.488 87.0653 272.488 87.0655 272.488 87.0657L274.883 89.4888C276.867 91.4957 280.083 91.4957 282.067 89.4888L298.832 72.5239C300.816 70.5164 300.816 67.2613 298.833 65.2536C298.832 65.2534 298.832 65.2532 298.832 65.253L301.287 62.7682C314.463 74.8165 334.795 73.7757 346.702 60.4439C358.203 47.5662 357.689 27.8207 345.534 15.5732ZM296.439 70.0991L279.674 87.064C279.012 87.733 277.94 87.733 277.279 87.064L274.885 84.6392C274.225 83.9703 274.225 82.8868 274.885 82.2179L291.65 65.253C292.32 64.605 293.375 64.605 294.044 65.253L296.439 67.6777C297.099 68.3467 297.099 69.4301 296.439 70.0991ZM343.141 59.1953C331.899 70.5716 313.67 70.5714 302.428 59.1946C291.185 47.8179 291.185 29.3726 302.428 17.9962C313.671 6.62011 331.899 6.62011 343.141 17.9962C354.366 29.3807 354.366 47.8108 343.141 59.1953Z" fill="#3BC6C5"/>
<path d="M340.745 20.4166L338.351 22.8396C346.933 31.5457 346.933 45.6386 338.351 54.3447L340.745 56.7677C350.651 46.7237 350.651 30.4606 340.745 20.4166Z" fill="#3BC6C5"/>
</g>
</g>
<defs>
<filter id="filter0_i" x="4.92801" y="6" width="350.072" height="89" filterUnits="userSpaceOnUse" color-interpolation-filters="sRGB">
<feFlood flood-opacity="0" result="BackgroundImageFix"/>
<feBlend mode="normal" in="SourceGraphic" in2="BackgroundImageFix" result="shape"/>
<feColorMatrix in="SourceAlpha" type="matrix" values="0 0 0 0 0 0 0 0 0 0 0 0 0 0 0 0 0 0 127 0" result="hardAlpha"/>
<feOffset dy="4"/>
<feGaussianBlur stdDeviation="2"/>
<feComposite in2="hardAlpha" operator="arithmetic" k2="-1" k3="1"/>
<feColorMatrix type="matrix" values="0 0 0 0 0 0 0 0 0 0 0 0 0 0 0 0 0 0 0.25 0"/>
<feBlend mode="normal" in2="shape" result="effect1_innerShadow"/>
</filter>
<filter id="filter1_i" x="4.92801" y="21.296" width="250.348" height="53.28" filterUnits="userSpaceOnUse" color-interpolation-filters="sRGB">
<feFlood flood-opacity="0" result="BackgroundImageFix"/>
<feBlend mode="normal" in="SourceGraphic" in2="BackgroundImageFix" result="shape"/>
<feColorMatrix in="SourceAlpha" type="matrix" values="0 0 0 0 0 0 0 0 0 0 0 0 0 0 0 0 0 0 127 0" result="hardAlpha"/>
<feOffset dy="4"/>
<feGaussianBlur stdDeviation="2"/>
<feComposite in2="hardAlpha" operator="arithmetic" k2="-1" k3="1"/>
<feColorMatrix type="matrix" values="0 0 0 0 0 0 0 0 0 0 0 0 0 0 0 0 0 0 0.25 0"/>
<feBlend mode="normal" in2="shape" result="effect1_innerShadow"/>
</filter>
<filter id="filter2_i" x="271" y="6" width="84" height="89" filterUnits="userSpaceOnUse" color-interpolation-filters="sRGB">
<feFlood flood-opacity="0" result="BackgroundImageFix"/>
<feBlend mode="normal" in="SourceGraphic" in2="BackgroundImageFix" result="shape"/>
<feColorMatrix in="SourceAlpha" type="matrix" values="0 0 0 0 0 0 0 0 0 0 0 0 0 0 0 0 0 0 127 0" result="hardAlpha"/>
<feOffset dy="4"/>
<feGaussianBlur stdDeviation="2"/>
<feComposite in2="hardAlpha" operator="arithmetic" k2="-1" k3="1"/>
<feColorMatrix type="matrix" values="0 0 0 0 0 0 0 0 0 0 0 0 0 0 0 0 0 0 0.25 0"/>
<feBlend mode="normal" in2="shape" result="effect1_innerShadow"/>
</filter>
<clipPath id="clip0">
<rect width="84" height="85" fill="white" transform="translate(271 6)"/>
</clipPath>
</defs>
</svg>
