<svg width="88" height="87" viewBox="0 0 88 87" fill="none" xmlns="http://www.w3.org/2000/svg">
<path d="M86.131 32.6048H5.43429C4.42192 32.6048 3.60022 33.4172 3.60022 34.418V77.9342C3.60022 82.9312 7.71214 87 12.7702 87H78.7947C83.853 87 87.9647 82.9312 87.9647 77.9342V34.418C87.9649 33.417 87.1434 32.6048 86.131 32.6048ZM84.2969 77.934C84.2969 80.9331 81.8284 83.3735 78.7949 83.3735H12.7704C9.73689 83.3735 7.26836 80.9331 7.26836 77.934V36.2311H84.2969V77.934Z" fill="#3BC6C5"/>
<path d="M87.906 15.8256L84.7844 4.11618C84.0656 1.26944 81.1239 -0.518296 78.2078 0.134447L4.31158 17.4683C2.85905 17.7947 1.6302 18.6686 0.84891 19.9234C0.0676203 21.1781 -0.163465 22.6576 0.20328 24.0937L3.65856 37.5981C3.86403 38.4176 4.61231 38.9653 5.43383 38.9653C5.58049 38.9653 5.73094 38.9509 5.88861 38.9109C6.86797 38.668 7.46219 37.6816 7.21271 36.7098L7.01102 35.9229L86.5375 18.0595C87.0217 17.9472 87.4435 17.6497 87.7003 17.2292C87.961 16.8084 88.0306 16.3007 87.906 15.8256ZM6.11264 32.4052L3.75777 23.2125C3.63673 22.7338 3.71736 22.2407 3.97424 21.8199C4.23473 21.403 4.64549 21.1128 5.14428 20.9967L79.0403 3.66656C79.1723 3.63393 79.308 3.61948 79.4401 3.61948C80.2618 3.61948 81.021 4.17788 81.2301 5.01557L83.8747 14.9337L6.11264 32.4052Z" fill="#3BC6C5"/>
<path d="M20.9281 32.7933C20.0183 32.3546 18.9253 32.7099 18.4631 33.6057L11.127 48.111C10.6759 49.0067 11.0426 50.0946 11.9487 50.5443C12.2164 50.6749 12.4953 50.7366 12.7704 50.7366C13.4417 50.7366 14.0909 50.3703 14.4136 49.7321L21.7498 35.2268C22.2009 34.3308 21.834 33.2429 20.9281 32.7933Z" fill="#3BC6C5"/>
<path d="M39.2647 32.7933C38.3587 32.3546 37.2583 32.7099 36.8034 33.6057L29.4672 48.111C29.0161 49.0067 29.3828 50.0946 30.2889 50.5443C30.5566 50.6749 30.8355 50.7366 31.1106 50.7366C31.7819 50.7366 32.4311 50.3703 32.7502 49.7321L40.0864 35.2268C40.5374 34.3308 40.1706 33.2429 39.2647 32.7933Z" fill="#3BC6C5"/>
<path d="M57.6047 32.7933C56.7024 32.3546 55.6019 32.7099 55.1434 33.6057L47.8073 48.111C47.3561 49.0067 47.7228 50.0946 48.629 50.5443C48.8967 50.6749 49.1756 50.7366 49.4507 50.7366C50.1219 50.7366 50.7712 50.3703 51.0903 49.7321L58.4264 35.2268C58.8776 34.3308 58.5106 33.2429 57.6047 32.7933Z" fill="#3BC6C5"/>
<path d="M75.9449 32.7933C75.0352 32.3546 73.9421 32.7099 73.4836 33.6057L66.1475 48.111C65.6963 49.0067 66.0631 50.0946 66.9692 50.5443C67.2369 50.6749 67.5158 50.7366 67.7909 50.7366C68.4621 50.7366 69.1114 50.3703 69.4305 49.7321L76.7666 35.2268C77.2176 34.3308 76.8508 33.2429 75.9449 32.7933Z" fill="#3BC6C5"/>
<path d="M86.131 47.1101H5.43429C4.42192 47.1101 3.60022 47.9225 3.60022 48.9234C3.60022 49.9242 4.42192 50.7366 5.43429 50.7366H86.131C87.147 50.7366 87.9651 49.9242 87.9651 48.9234C87.9651 47.9225 87.1434 47.1101 86.131 47.1101Z" fill="#3BC6C5"/>
<path d="M23.1693 29.439L10.5366 16.9499C9.82133 16.2427 8.65851 16.2427 7.94325 16.9499C7.22798 17.657 7.22798 18.8066 7.94325 19.5138L20.5759 32.0065C20.9355 32.3582 21.4048 32.536 21.8744 32.536C22.344 32.536 22.8134 32.3583 23.1693 32.0029C23.8846 31.2956 23.8846 30.1462 23.1693 29.439Z" fill="#3BC6C5"/>
<path d="M41.1132 25.41L28.4696 12.9209C27.7544 12.2137 26.5916 12.2137 25.8763 12.9209C25.161 13.628 25.161 14.7776 25.8763 15.4848L38.5164 27.9739C38.8759 28.3256 39.3453 28.5034 39.8149 28.5034C40.2844 28.5034 40.7538 28.3258 41.1133 27.9739C41.8286 27.2668 41.8286 26.1172 41.1132 25.41Z" fill="#3BC6C5"/>
<path d="M59.0426 21.3812L46.4209 8.88851C45.7056 8.18137 44.5428 8.18137 43.8275 8.88851C43.1123 9.59565 43.1123 10.7453 43.8275 11.4524L56.4492 23.9451C56.8087 24.2968 57.2781 24.4746 57.7477 24.4746C58.2173 24.4746 58.6867 24.3005 59.0426 23.9451C59.7578 23.238 59.7578 22.0884 59.0426 21.3812Z" fill="#3BC6C5"/>
<path d="M76.9646 17.356L64.3392 4.86327C63.6239 4.15613 62.4611 4.15613 61.7458 4.86327C61.0305 5.57041 61.0305 6.72001 61.7458 7.42715L74.3711 19.9199C74.7306 20.2716 75.2 20.4494 75.6696 20.4494C76.1391 20.4494 76.6085 20.2717 76.9644 19.9199C77.6799 19.2127 77.6799 18.0631 76.9646 17.356Z" fill="#3BC6C5"/>
</svg>
