<svg width="91" height="78" viewBox="0 0 91 78" fill="none" xmlns="http://www.w3.org/2000/svg">
<g clip-path="url(#clip0)">
<path d="M90.9513 48.8145C90.7246 44.3454 89.8178 39.3907 88.4577 34.7274C87.0976 30.2584 85.3974 26.0808 83.3572 22.8748C75.4231 10.925 66.8089 12.7709 56.4946 15.1026C53.2076 15.7826 49.6939 16.5599 46.0669 16.8513H44.9334C41.3064 16.5599 37.7927 15.7826 34.5057 15.1026C24.1914 12.8681 15.5772 10.925 7.64311 22.9719C5.60291 26.1779 3.7894 30.3555 2.54261 34.8245C1.18248 39.4878 0.275723 44.4426 0.0490339 48.9116C-0.177655 53.8664 0.389067 57.461 1.63586 59.987C2.88264 62.3186 4.69616 63.7759 7.07639 64.3588C9.22993 64.8446 11.7235 64.6503 14.3304 63.6788C18.7509 62.1243 23.8514 58.8211 28.8385 54.8379C32.3522 51.9233 38.9262 50.466 45.5002 50.466C52.0741 50.466 58.6481 51.9233 62.1618 54.8379C67.1489 58.8211 72.2494 62.1243 76.6699 63.6788C79.2768 64.5531 81.7704 64.8446 83.9239 64.3588C86.1908 63.7759 88.1177 62.4158 89.3644 59.8898C90.6112 57.461 91.1779 53.8664 90.9513 48.8145ZM85.5107 58.5297C84.8307 59.8898 83.9239 60.667 82.7905 60.9585C81.5437 61.25 79.9569 61.0557 78.1433 60.4727C74.1763 59.1126 69.5292 56.1009 64.9954 52.4091C60.6883 48.7173 53.0942 46.8714 45.5002 46.8714C37.9061 46.8714 30.312 48.7173 25.8916 52.2148C21.2444 55.9066 16.5973 59.0155 12.7436 60.2784C10.9301 60.8613 9.34328 61.1528 8.09649 60.7642C6.96304 60.4727 6.05629 59.6955 5.37622 58.3354C4.46947 56.4895 4.01609 53.4778 4.24278 49.0088C4.46947 44.8312 5.26288 40.0707 6.62301 35.6017C7.8698 31.4242 9.45662 27.5381 11.3835 24.6235C17.6174 15.0054 24.8715 16.5599 33.4856 18.5029C36.9993 19.2801 40.6263 20.0574 44.5934 20.3488C44.7067 20.3488 44.7067 20.3488 44.8201 20.3488H46.0669C46.1802 20.3488 46.1802 20.3488 46.2936 20.3488C50.374 20.0574 54.001 19.2801 57.5147 18.5029C66.1288 16.657 73.3829 15.0054 79.6168 24.6235C81.5437 27.5381 83.1305 31.327 84.3773 35.6017C85.6241 40.0707 86.5308 44.7341 86.7575 49.0088C86.9842 53.4778 86.5308 56.4895 85.5107 58.5297Z" fill="#3BC6C5"/>
<path d="M35.0725 29.8698C33.939 28.9954 32.5789 28.3153 30.9921 28.2182C30.8787 26.9552 30.1987 25.6922 29.1786 24.8178L29.0652 24.7207C27.8184 23.652 26.2316 23.0691 24.4181 23.0691C22.6046 23.0691 20.9044 23.7492 19.771 24.7207C18.7509 25.5951 17.9575 26.858 17.8441 28.2182C16.2573 28.3153 14.8972 28.8982 13.7637 29.7726L13.6504 29.8698C12.4036 30.9384 11.7235 32.2986 11.7235 33.853C11.7235 35.4074 12.5169 36.8647 13.6504 37.8363C14.7838 38.8078 16.1439 39.3907 17.8441 39.4878C17.9575 40.848 18.6375 42.111 19.771 42.9853C21.0178 44.054 22.6046 44.6369 24.4181 44.6369C26.2316 44.6369 27.9318 43.9568 29.0652 42.9853C30.0853 42.0138 30.8787 40.848 30.9921 39.4878C32.5789 39.3907 34.0524 38.8078 35.0725 37.8363C36.3193 36.7676 36.9993 35.4074 36.9993 33.853C36.9993 32.2986 36.2059 30.8413 35.0725 29.8698ZM32.2389 35.3103C31.7855 35.6989 31.2188 35.8932 30.5387 35.8932H28.9519C27.8184 35.8932 26.7983 36.6704 26.7983 37.7391V39.0021C26.7983 39.585 26.5716 40.0708 26.1183 40.4594C25.6649 40.848 25.0982 41.0423 24.4181 41.0423C23.738 41.0423 23.1713 40.848 22.7179 40.4594C22.2645 40.0708 22.0379 39.585 22.0379 39.0021V37.6419C22.0379 36.6704 21.1311 35.796 19.8843 35.796H18.2975C17.6174 35.796 17.0507 35.6017 16.5973 35.2131C16.2573 34.9217 15.9173 34.4359 15.9173 33.853C15.9173 33.2701 16.1439 32.7843 16.5973 32.3957C16.5973 32.3957 16.5973 32.3957 16.7107 32.2986C17.164 32.0071 17.7308 31.8128 18.2975 31.8128H19.8843C21.0178 31.8128 22.0379 31.0356 22.0379 29.9669V28.6068C22.0379 28.0239 22.2645 27.5381 22.7179 27.1495C23.1713 26.7609 23.738 26.5666 24.4181 26.5666C25.0982 26.5666 25.6649 26.7609 26.1183 27.1495C26.1183 27.1495 26.1183 27.1495 26.2316 27.2466C26.5716 27.6353 26.7983 28.121 26.7983 28.6068V29.9669C26.7983 30.9384 27.7051 31.8128 28.9519 31.8128H30.5387C31.2188 31.8128 31.7855 32.0071 32.2389 32.3957C32.6922 32.7843 32.9189 33.2701 32.9189 33.853C32.9189 34.4359 32.6922 34.9217 32.2389 35.3103Z" fill="#3BC6C5"/>
<path d="M65.2221 30.3555C67.413 30.3555 69.1892 28.8331 69.1892 26.9552C69.1892 25.0772 67.413 23.5548 65.2221 23.5548C63.0311 23.5548 61.255 25.0772 61.255 26.9552C61.255 28.8331 63.0311 30.3555 65.2221 30.3555Z" fill="#3BC6C5"/>
<path d="M65.2221 44.1511C67.413 44.1511 69.1892 42.6288 69.1892 40.7508C69.1892 38.8728 67.413 37.3505 65.2221 37.3505C63.0311 37.3505 61.255 38.8728 61.255 40.7508C61.255 42.6288 63.0311 44.1511 65.2221 44.1511Z" fill="#3BC6C5"/>
<path d="M57.1746 37.2533C59.3656 37.2533 61.1417 35.7309 61.1417 33.853C61.1417 31.975 59.3656 30.4526 57.1746 30.4526C54.9837 30.4526 53.2076 31.975 53.2076 33.853C53.2076 35.7309 54.9837 37.2533 57.1746 37.2533Z" fill="#3BC6C5"/>
<path d="M73.2695 37.2533C75.4605 37.2533 77.2366 35.7309 77.2366 33.853C77.2366 31.975 75.4605 30.4526 73.2695 30.4526C71.0786 30.4526 69.3025 31.975 69.3025 33.853C69.3025 35.7309 71.0786 37.2533 73.2695 37.2533Z" fill="#3BC6C5"/>
</g>
<defs>
<clipPath id="clip0">
<rect width="91" height="78" fill="white"/>
</clipPath>
</defs>
</svg>
