<svg width="165" height="178" viewBox="0 0 165 178" fill="none" xmlns="http://www.w3.org/2000/svg">
<rect x="0.5" y="0.5" width="164" height="177" rx="70.5" stroke="#3BC6C5"/>
<path d="M127.951 98.4294C127.724 93.9604 126.818 89.0056 125.458 84.3423C124.097 79.8733 122.397 75.6958 120.357 72.4897C112.423 60.54 103.809 62.3859 93.4944 64.7175C90.2075 65.3976 86.6938 66.1748 83.0668 66.4663H81.9333C78.3063 66.1748 74.7926 65.3976 71.5056 64.7175C61.1913 62.483 52.5771 60.54 44.643 72.5869C42.6028 75.7929 40.7893 79.9705 39.5425 84.4395C38.1824 89.1028 37.2756 94.0576 37.0489 98.5266C36.8222 103.481 37.3889 107.076 38.6357 109.602C39.8825 111.934 41.696 113.391 44.0763 113.974C46.2298 114.46 48.7234 114.265 51.3303 113.294C55.7507 111.739 60.8512 108.436 65.8384 104.453C69.3521 101.538 75.9261 100.081 82.5 100.081C89.074 100.081 95.648 101.538 99.1617 104.453C104.149 108.436 109.249 111.739 113.67 113.294C116.277 114.168 118.77 114.46 120.924 113.974C123.191 113.391 125.118 112.031 126.364 109.505C127.611 107.076 128.178 103.481 127.951 98.4294ZM122.511 108.145C121.831 109.505 120.924 110.282 119.79 110.573C118.544 110.865 116.957 110.671 115.143 110.088C111.176 108.728 106.529 105.716 101.995 102.024C97.6882 98.3323 90.0941 96.4864 82.5 96.4864C74.906 96.4864 67.3119 98.3323 62.8914 101.83C58.2443 105.522 53.5972 108.63 49.7435 109.893C47.93 110.476 46.3432 110.768 45.0964 110.379C43.9629 110.088 43.0562 109.31 42.3761 107.95C41.4693 106.104 41.016 103.093 41.2427 98.6237C41.4693 94.4462 42.2628 89.6857 43.6229 85.2167C44.8697 81.0391 46.4565 77.153 48.3834 74.2385C54.6173 64.6204 61.8713 66.1748 70.4855 68.1179C73.9992 68.8951 77.6262 69.6723 81.5933 69.9638C81.7066 69.9638 81.7066 69.9638 81.82 69.9638H83.0668C83.1801 69.9638 83.1801 69.9638 83.2934 69.9638C87.3738 69.6723 91.0009 68.8951 94.5145 68.1179C103.129 66.272 110.383 64.6204 116.617 74.2385C118.544 77.153 120.13 80.942 121.377 85.2167C122.624 89.6857 123.531 94.349 123.757 98.6237C123.984 103.093 123.531 106.104 122.511 108.145Z" fill="#3BC6C5"/>
<path d="M72.0723 79.4847C70.9389 78.6103 69.5788 77.9303 67.9919 77.8331C67.8786 76.5701 67.1985 75.3072 66.1784 74.4328L66.0651 74.3356C64.8183 73.267 63.2315 72.6841 61.418 72.6841C59.6045 72.6841 57.9043 73.3641 56.7708 74.3356C55.7507 75.21 54.9573 76.473 54.844 77.8331C53.2572 77.9303 51.897 78.5132 50.7636 79.3876L50.6502 79.4847C49.4035 80.5534 48.7234 81.9135 48.7234 83.468C48.7234 85.0224 49.5168 86.4797 50.6502 87.4512C51.7837 88.4227 53.1438 89.0056 54.844 89.1028C54.9573 90.4629 55.6374 91.7259 56.7708 92.6003C58.0176 93.669 59.6045 94.2519 61.418 94.2519C63.2315 94.2519 64.9316 93.5718 66.0651 92.6003C67.0852 91.6288 67.8786 90.4629 67.9919 89.1028C69.5788 89.0056 71.0522 88.4227 72.0723 87.4512C73.3191 86.3825 73.9992 85.0224 73.9992 83.468C73.9992 81.9135 73.2058 80.4562 72.0723 79.4847ZM69.2387 84.9252C68.7854 85.3139 68.2186 85.5082 67.5386 85.5082H65.9517C64.8183 85.5082 63.7982 86.2854 63.7982 87.3541V88.617C63.7982 89.1999 63.5715 89.6857 63.1181 90.0743C62.6648 90.4629 62.098 90.6572 61.418 90.6572C60.7379 90.6572 60.1712 90.4629 59.7178 90.0743C59.2644 89.6857 59.0377 89.1999 59.0377 88.617V87.2569C59.0377 86.2854 58.131 85.411 56.8842 85.411H55.2974C54.6173 85.411 54.0506 85.2167 53.5972 84.8281C53.2572 84.5366 52.9171 84.0509 52.9171 83.468C52.9171 82.885 53.1438 82.3993 53.5972 82.0107C53.5972 82.0107 53.5972 82.0107 53.7105 81.9135C54.1639 81.6221 54.7306 81.4278 55.2974 81.4278H56.8842C58.0176 81.4278 59.0377 80.6505 59.0377 79.5819V78.2217C59.0377 77.6388 59.2644 77.1531 59.7178 76.7644C60.1712 76.3758 60.7379 76.1815 61.418 76.1815C62.098 76.1815 62.6648 76.3758 63.1181 76.7644C63.1181 76.7644 63.1181 76.7644 63.2315 76.8616C63.5715 77.2502 63.7982 77.736 63.7982 78.2217V79.5819C63.7982 80.5534 64.705 81.4278 65.9517 81.4278H67.5386C68.2186 81.4278 68.7854 81.6221 69.2387 82.0107C69.6921 82.3993 69.9188 82.885 69.9188 83.468C69.9188 84.0509 69.6921 84.5366 69.2387 84.9252Z" fill="#3BC6C5"/>
<path d="M102.222 79.9705C104.413 79.9705 106.189 78.4481 106.189 76.5701C106.189 74.6922 104.413 73.1698 102.222 73.1698C100.031 73.1698 98.2549 74.6922 98.2549 76.5701C98.2549 78.4481 100.031 79.9705 102.222 79.9705Z" fill="#3BC6C5"/>
<path d="M102.222 93.7661C104.413 93.7661 106.189 92.2437 106.189 90.3658C106.189 88.4878 104.413 86.9654 102.222 86.9654C100.031 86.9654 98.2549 88.4878 98.2549 90.3658C98.2549 92.2437 100.031 93.7661 102.222 93.7661Z" fill="#3BC6C5"/>
<path d="M94.1745 86.8683C96.3655 86.8683 98.1416 85.3459 98.1416 83.4679C98.1416 81.59 96.3655 80.0676 94.1745 80.0676C91.9836 80.0676 90.2075 81.59 90.2075 83.4679C90.2075 85.3459 91.9836 86.8683 94.1745 86.8683Z" fill="#3BC6C5"/>
<path d="M110.269 86.8683C112.46 86.8683 114.236 85.3459 114.236 83.4679C114.236 81.59 112.46 80.0676 110.269 80.0676C108.078 80.0676 106.302 81.59 106.302 83.4679C106.302 85.3459 108.078 86.8683 110.269 86.8683Z" fill="#3BC6C5"/>
</svg>
