<svg width="173" height="186" viewBox="0 0 173 186" fill="none" xmlns="http://www.w3.org/2000/svg">
<g filter="url(#filter0_d)">
<rect x="4.5" y="0.5" width="164" height="177" rx="65.5" stroke="#3BC6C5"/>
<path d="M129.131 78.6048H48.4343C47.4219 78.6048 46.6002 79.4172 46.6002 80.418V123.934C46.6002 128.931 50.7121 133 55.7702 133H121.795C126.853 133 130.965 128.931 130.965 123.934V80.418C130.965 79.417 130.143 78.6048 129.131 78.6048ZM127.297 123.934C127.297 126.933 124.828 129.374 121.795 129.374H55.7704C52.7369 129.374 50.2684 126.933 50.2684 123.934V82.2311H127.297V123.934Z" fill="#3BC6C5"/>
<path d="M130.906 61.8256L127.784 50.1162C127.066 47.2694 124.124 45.4817 121.208 46.1344L47.3116 63.4683C45.859 63.7947 44.6302 64.6686 43.8489 65.9234C43.0676 67.1781 42.8365 68.6576 43.2033 70.0937L46.6586 83.5981C46.864 84.4176 47.6123 84.9653 48.4338 84.9653C48.5805 84.9653 48.7309 84.9509 48.8886 84.9109C49.868 84.668 50.4622 83.6816 50.2127 82.7098L50.011 81.9229L129.538 64.0595C130.022 63.9472 130.443 63.6497 130.7 63.2292C130.961 62.8084 131.031 62.3007 130.906 61.8256ZM49.1126 78.4052L46.7578 69.2125C46.6367 68.7338 46.7174 68.2407 46.9742 67.8199C47.2347 67.403 47.6455 67.1128 48.1443 66.9967L122.04 49.6666C122.172 49.6339 122.308 49.6195 122.44 49.6195C123.262 49.6195 124.021 50.1779 124.23 51.0156L126.875 60.9337L49.1126 78.4052Z" fill="#3BC6C5"/>
<path d="M63.9281 78.7933C63.0183 78.3546 61.9253 78.7099 61.4631 79.6057L54.127 94.111C53.6759 95.0067 54.0426 96.0946 54.9487 96.5443C55.2164 96.6749 55.4953 96.7366 55.7704 96.7366C56.4417 96.7366 57.0909 96.3703 57.4136 95.7321L64.7498 81.2268C65.2009 80.3308 64.834 79.2429 63.9281 78.7933Z" fill="#3BC6C5"/>
<path d="M82.2647 78.7933C81.3587 78.3546 80.2583 78.7099 79.8034 79.6057L72.4672 94.111C72.0161 95.0067 72.3828 96.0946 73.2889 96.5443C73.5566 96.6749 73.8355 96.7366 74.1106 96.7366C74.7819 96.7366 75.4311 96.3703 75.7502 95.7321L83.0864 81.2268C83.5374 80.3308 83.1706 79.2429 82.2647 78.7933Z" fill="#3BC6C5"/>
<path d="M100.605 78.7933C99.7024 78.3546 98.6019 78.7099 98.1434 79.6057L90.8073 94.111C90.3561 95.0067 90.7228 96.0946 91.629 96.5443C91.8967 96.6749 92.1756 96.7366 92.4507 96.7366C93.1219 96.7366 93.7712 96.3703 94.0903 95.7321L101.426 81.2268C101.878 80.3308 101.511 79.2429 100.605 78.7933Z" fill="#3BC6C5"/>
<path d="M118.945 78.7933C118.035 78.3546 116.942 78.7099 116.484 79.6057L109.147 94.111C108.696 95.0067 109.063 96.0946 109.969 96.5443C110.237 96.6749 110.516 96.7366 110.791 96.7366C111.462 96.7366 112.111 96.3703 112.43 95.7321L119.767 81.2268C120.218 80.3308 119.851 79.2429 118.945 78.7933Z" fill="#3BC6C5"/>
<path d="M129.131 93.1101H48.4343C47.4219 93.1101 46.6002 93.9225 46.6002 94.9234C46.6002 95.9242 47.4219 96.7366 48.4343 96.7366H129.131C130.147 96.7366 130.965 95.9242 130.965 94.9234C130.965 93.9225 130.143 93.1101 129.131 93.1101Z" fill="#3BC6C5"/>
<path d="M66.1693 75.439L53.5366 62.9499C52.8213 62.2427 51.6585 62.2427 50.9432 62.9499C50.228 63.657 50.228 64.8066 50.9432 65.5138L63.5759 78.0065C63.9355 78.3582 64.4048 78.536 64.8744 78.536C65.344 78.536 65.8134 78.3583 66.1693 78.0029C66.8846 77.2956 66.8846 76.1462 66.1693 75.439Z" fill="#3BC6C5"/>
<path d="M84.1132 71.41L71.4696 58.9209C70.7544 58.2137 69.5916 58.2137 68.8763 58.9209C68.161 59.628 68.161 60.7776 68.8763 61.4848L81.5164 73.9739C81.8759 74.3256 82.3453 74.5034 82.8149 74.5034C83.2844 74.5034 83.7538 74.3258 84.1133 73.9739C84.8286 73.2668 84.8286 72.1172 84.1132 71.41Z" fill="#3BC6C5"/>
<path d="M102.043 67.3812L89.4209 54.8885C88.7056 54.1814 87.5428 54.1814 86.8275 54.8885C86.1123 55.5956 86.1123 56.7453 86.8275 57.4524L99.4492 69.9451C99.8087 70.2968 100.278 70.4746 100.748 70.4746C101.217 70.4746 101.687 70.3005 102.043 69.9451C102.758 69.238 102.758 68.0884 102.043 67.3812Z" fill="#3BC6C5"/>
<path d="M119.965 63.356L107.339 50.8633C106.624 50.1561 105.461 50.1561 104.746 50.8633C104.031 51.5704 104.031 52.72 104.746 53.4272L117.371 65.9199C117.731 66.2716 118.2 66.4494 118.67 66.4494C119.139 66.4494 119.609 66.2717 119.964 65.9199C120.68 65.2127 120.68 64.0631 119.965 63.356Z" fill="#3BC6C5"/>
</g>
<defs>
<filter id="filter0_d" x="0" y="0" width="173" height="186" filterUnits="userSpaceOnUse" color-interpolation-filters="sRGB">
<feFlood flood-opacity="0" result="BackgroundImageFix"/>
<feColorMatrix in="SourceAlpha" type="matrix" values="0 0 0 0 0 0 0 0 0 0 0 0 0 0 0 0 0 0 127 0"/>
<feOffset dy="4"/>
<feGaussianBlur stdDeviation="2"/>
<feColorMatrix type="matrix" values="0 0 0 0 0 0 0 0 0 0 0 0 0 0 0 0 0 0 0.25 0"/>
<feBlend mode="normal" in2="BackgroundImageFix" result="effect1_dropShadow"/>
<feBlend mode="normal" in="SourceGraphic" in2="effect1_dropShadow" result="shape"/>
</filter>
</defs>
</svg>
