<svg width="106" height="104" viewBox="0 0 106 104" fill="none" xmlns="http://www.w3.org/2000/svg">
<path d="M71.5164 3.25C71.3999 3.25 71.2835 3.26269 71.167 3.27539C70.6883 3.36426 70.2612 3.59912 69.9378 3.94824L60.7378 13.0508L53.5823 4.15137C53.1618 3.63721 52.5342 3.33887 51.8743 3.33252C51.8096 3.33252 51.7384 3.33887 51.6673 3.34522C50.9815 3.42773 50.3798 3.82764 50.0369 4.42432L44.5829 13.3936L31.1582 5.77002C30.8089 5.56689 30.4271 5.46533 30.039 5.46533C29.6055 5.46533 29.172 5.59228 28.7968 5.83984C28.0916 6.32227 27.7422 7.16016 27.8845 7.99805L29.5925 18.04L17.3259 16.2881C17.2224 16.2754 17.1189 16.269 17.0154 16.269C16.2973 16.269 15.6115 16.6245 15.2039 17.2339C14.7445 17.9131 14.7186 18.8081 15.1392 19.5254L20.4573 28.2852L9.48464 33.7441C8.65004 34.1631 8.17775 35.0454 8.30068 35.9658C8.4236 36.8735 9.12233 37.6099 10.0281 37.7939L18.3417 39.4126L14.9386 47.8359C14.5634 48.6992 14.7963 49.7021 15.5144 50.3179C15.9155 50.667 16.4331 50.8511 16.9507 50.8511C17.3389 50.8511 17.7271 50.7495 18.0764 50.5337L18.2252 50.4512C18.5228 50.4512 18.8269 50.4004 19.0987 50.2354L19.1633 50.1909V55.3262C19.1698 55.4595 19.1957 55.5928 19.2345 55.7324C19.3574 56.3608 19.6356 56.9702 20.0044 57.5098C20.0432 57.5605 20.0756 57.6113 20.1144 57.6621C20.2244 57.8589 20.3732 58.0176 20.5608 58.1572C20.8714 58.4683 21.2143 58.7539 21.6218 58.9634C21.2531 59.249 20.8261 59.6172 20.4573 60.1123C19.3704 61.6167 18.7363 63.9907 18.9628 66.5806C19.8297 74.3501 24.8632 77.124 26.39 77.7715C27.0435 81.4404 28.7709 85.7759 32.0446 90.3145C35.3183 95.272 50.5803 102.375 53.854 102.375C55.9567 102.375 63.0022 99.3408 68.6503 95.9194C71.7752 94.0151 74.4989 92.0029 75.6635 90.3081C78.7107 85.7759 80.4575 81.2246 81.1175 77.7715C82.6378 77.1177 87.6583 74.3501 88.7517 66.5806C88.9717 63.9907 88.273 61.6167 87.1861 60.106C86.8626 59.6743 86.552 59.2935 86.2285 59.0269C87.6195 58.4238 88.5965 57.1543 88.8876 55.7261C88.9199 55.5864 88.9458 55.4531 88.9523 55.3198V50.8701H89.0041C89.7351 50.8701 90.4145 50.5083 90.822 49.9116C91.2361 49.2896 91.3008 48.5088 90.9967 47.8359L87.4578 39.0698L96.3148 35.5659C97.13 35.2549 97.6929 34.4868 97.7188 33.6172C97.7447 32.7476 97.253 31.9478 96.4507 31.5859L85.3422 26.0571L90.725 15.0693C91.1197 14.2949 91.0097 13.3682 90.4468 12.7017C90.0263 12.2129 89.4116 11.9463 88.7776 11.9463C88.5641 11.9463 88.3506 11.9717 88.1371 12.0415L75.4629 15.6787L73.6902 5.16064C73.619 4.57031 73.315 4.04346 72.8362 3.68164C72.4545 3.396 71.9887 3.25 71.5164 3.25ZM52.036 7.48389L58.137 15.0693C58.7257 15.7993 59.6056 16.2437 60.5502 16.3008C60.6149 16.3008 60.6796 16.3008 60.7378 16.3008C61.6177 16.3008 62.4652 15.958 63.0863 15.3423L70.7594 7.75049L72.1892 16.2119C72.3445 17.1323 72.888 17.9385 73.6902 18.4336C74.2272 18.7637 74.8418 18.9351 75.4564 18.9351C75.767 18.9351 76.084 18.8843 76.3881 18.8018L86.6685 15.8501L82.3532 24.6543C81.5703 26.2476 82.2367 28.1646 83.8412 28.9644L92.8341 33.4395L86.2091 36.061C84.5205 36.7275 83.6989 38.6064 84.3717 40.2695L86.8367 46.3633L75.4112 39.3364C75.1459 39.1714 74.8354 39.0889 74.5313 39.0889H68.5209C68.2233 39.0508 67.9257 39 67.6151 39H40.0412C39.7306 39 39.433 39.0508 39.1354 39.0889H31.4623C31.1582 39.0889 30.8541 39.1714 30.5889 39.3364L19.0792 46.4141L21.4278 40.606C21.7901 39.7109 21.7254 38.7017 21.2531 37.8574C20.7872 37.0068 19.9527 36.4038 18.9887 36.2197L13.8452 35.2231L21.9583 31.186C22.7735 30.7798 23.3881 30.0562 23.6404 29.1929C23.8927 28.3296 23.7698 27.3965 23.304 26.6284L19.1892 19.8364L29.1138 21.2583C29.2755 21.2773 29.4308 21.29 29.5861 21.29C30.4724 21.29 31.3264 20.9409 31.954 20.3188C32.698 19.5762 33.028 18.5288 32.8533 17.5068L31.5399 9.74365L42.9267 16.2056C43.4507 16.4976 44.0136 16.6436 44.5764 16.6436C45.7086 16.6436 46.8085 16.0723 47.4231 15.0566L52.036 7.48389ZM36.4375 29.3071C35.5253 29.3071 34.7813 30.0371 34.7813 30.9321V34.2012C34.7813 35.0962 35.5253 35.8262 36.4375 35.8262C37.3498 35.8262 38.0938 35.0962 38.0938 34.2012V30.9321C38.0938 30.0371 37.3498 29.3071 36.4375 29.3071ZM44.7188 29.3071C43.8065 29.3071 43.0625 30.0371 43.0625 30.9321V34.2012C43.0625 35.0962 43.8065 35.8262 44.7188 35.8262C45.631 35.8262 46.375 35.0962 46.375 34.2012V30.9321C46.375 30.0371 45.631 29.3071 44.7188 29.3071ZM53 29.3071C52.0878 29.3071 51.3438 30.0371 51.3438 30.9321V34.2012C51.3438 35.0962 52.0878 35.8262 53 35.8262C53.9123 35.8262 54.6563 35.0962 54.6563 34.2012V30.9321C54.6563 30.0371 53.9123 29.3071 53 29.3071ZM61.2813 29.3071C60.369 29.3071 59.625 30.0371 59.625 30.9321V34.2012C59.625 35.0962 60.369 35.8262 61.2813 35.8262C62.1935 35.8262 62.9375 35.0962 62.9375 34.2012V30.9321C62.9375 30.0371 62.1935 29.3071 61.2813 29.3071ZM69.5625 29.3071C68.6503 29.3071 67.9063 30.0371 67.9063 30.9321V34.2012C67.9063 35.0962 68.6503 35.8262 69.5625 35.8262C70.4748 35.8262 71.2188 35.0962 71.2188 34.2012V30.9321C71.2188 30.0371 70.4748 29.3071 69.5625 29.3071ZM31.9475 42.3389H34.1149C33.5003 43.3545 33.125 44.5225 33.125 45.7856V51.7144C33.125 53.0156 33.5132 54.2153 34.1666 55.25H22.5535C22.5341 55.1929 22.4953 55.1421 22.4823 55.085C22.4823 55.0786 22.4823 55.0723 22.4823 55.0659V49.9243C22.4823 49.3784 22.327 48.8643 22.0812 48.4009L31.9475 42.3389ZM39.2648 42.3389H68.385C70.0025 42.688 71.2188 44.0972 71.2188 45.7856V51.7144C71.2188 53.6631 69.6013 55.25 67.6087 55.25H40.0412C38.055 55.25 36.4375 53.6631 36.4375 51.7144V45.7856C36.4375 44.0972 37.6538 42.688 39.2648 42.3389ZM73.5414 42.3389H74.059L85.8986 49.6133C85.7304 50.0068 85.6398 50.4385 85.6398 50.8701V55.0659C85.6333 55.0723 85.6333 55.0786 85.6333 55.085C85.6204 55.1484 85.5816 55.1929 85.5557 55.25H73.4896C74.1431 54.2153 74.5313 53.0156 74.5313 51.708V45.7856C74.5313 44.5225 74.156 43.3545 73.5414 42.3389ZM24.8826 58.5H82.9549C82.9484 58.519 82.9419 58.5381 82.9354 58.5571C82.7737 59.668 83.2007 60.7725 84.0676 61.4961C84.1129 61.5342 84.2294 61.6548 84.4752 61.9849C85.0252 62.7402 85.5945 64.2954 85.4522 66.2251C84.5399 72.4712 80.5869 74.4517 79.7976 74.7881C78.7883 75.2134 78.0573 76.1084 77.8567 77.1748C77.8373 77.3018 77.7985 77.4351 77.7726 77.5684C75.8576 75.9941 71.9693 73.29 67.9063 73.29C66.9876 73.29 66.25 74.0137 66.25 74.915C66.25 75.8164 66.9876 76.54 67.9063 76.54C72.1181 76.54 76.6275 80.9072 76.6728 80.9517C76.6922 80.9707 76.718 80.9771 76.7374 80.9961C76.1875 82.4941 75.5276 84.0176 74.706 85.522C73.2244 83.8018 70.4489 81.0977 66.7741 79.8916C65.9071 79.606 64.969 80.0693 64.6779 80.9199C64.3932 81.7705 64.859 82.6909 65.726 82.9702C69.5755 84.2334 72.2733 87.6738 72.8944 88.5117C72.1569 89.5654 70.4812 90.8604 68.4562 92.1743C67.6087 90.8477 66.2177 88.8672 64.1085 86.7979C63.4616 86.1631 62.4199 86.1631 61.7665 86.7915C61.1195 87.4263 61.1195 88.4546 61.7665 89.0894C63.6492 90.9429 64.8978 92.7266 65.6419 93.8945C60.9578 96.5669 55.5685 98.9536 53.8476 99.1187C52.049 98.96 46.6403 96.6177 41.9756 93.9453C42.7132 92.7837 43.9812 90.9746 45.8898 89.0894C46.5368 88.4546 46.5368 87.4263 45.8898 86.7915C45.2428 86.1631 44.1947 86.1567 43.5477 86.7979C41.4127 88.8989 40.0088 90.8984 39.1677 92.2251C37.1751 90.9175 35.5382 89.6162 34.8266 88.5371C34.8136 88.5181 34.8007 88.5054 34.7813 88.48C35.4477 87.5913 38.1261 84.2207 41.9303 82.9702C42.7973 82.6909 43.2696 81.7705 42.9784 80.9199C42.6873 80.0693 41.7492 79.606 40.8822 79.8916C37.1686 81.104 34.3737 83.8652 32.905 85.5791C31.954 83.9478 31.2553 82.4497 30.7506 81.0977C30.8283 81.0469 30.9124 81.0151 30.9835 80.9453C32.2322 79.7202 36.237 76.54 39.75 76.54C40.6687 76.54 41.4063 75.8164 41.4063 74.915C41.4063 74.0137 40.6687 73.29 39.75 73.29C35.6029 73.29 31.637 76.1084 29.7608 77.6636C29.7349 77.5239 29.6767 77.3398 29.6508 77.2065C29.4567 76.1338 28.7256 75.2197 27.7034 74.7817C26.6035 74.3184 22.9546 72.3125 22.2559 66.2632C22.0941 64.251 22.6441 62.7021 23.1293 62.0293C23.2846 61.8198 23.5045 61.6357 23.6792 61.4961C24.5591 60.8169 25.0249 59.7505 24.9149 58.6523C24.9149 58.6016 24.8891 58.5508 24.8826 58.5ZM43.0625 61.8896C41.2445 61.9087 39.7888 63.356 39.7888 65.146C39.7888 66.9297 41.2445 68.3833 43.0625 68.4023C44.8805 68.3833 46.3362 66.9297 46.3362 65.146C46.3362 63.356 44.8805 61.9087 43.0625 61.8896ZM64.5938 61.8896C62.7758 61.9087 61.3201 63.356 61.3201 65.146C61.3201 66.9297 62.7758 68.3833 64.5938 68.4023C66.4118 68.3833 67.8675 66.9297 67.8675 65.146C67.8675 63.356 66.4118 61.9087 64.5938 61.8896Z" fill="#3BC6C5"/>
</svg>
