<svg width="161" height="45" viewBox="0 0 161 45" fill="none" xmlns="http://www.w3.org/2000/svg">
<path d="M11.49 33L5.04 25.74V33H2.31V10.8H5.04V23.85L11.37 16.56H15.18L7.44 24.75L15.21 33H11.49ZM32.7495 24.15C32.7495 24.67 32.7195 25.22 32.6595 25.8H19.5195C19.6195 27.42 20.1695 28.69 21.1695 29.61C22.1895 30.51 23.4195 30.96 24.8595 30.96C26.0395 30.96 27.0195 30.69 27.7995 30.15C28.5995 29.59 29.1595 28.85 29.4795 27.93H32.4195C31.9795 29.51 31.0995 30.8 29.7795 31.8C28.4595 32.78 26.8195 33.27 24.8595 33.27C23.2995 33.27 21.8995 32.92 20.6595 32.22C19.4395 31.52 18.4795 30.53 17.7795 29.25C17.0795 27.95 16.7295 26.45 16.7295 24.75C16.7295 23.05 17.0695 21.56 17.7495 20.28C18.4295 19 19.3795 18.02 20.5995 17.34C21.8395 16.64 23.2595 16.29 24.8595 16.29C26.4195 16.29 27.7995 16.63 28.9995 17.31C30.1995 17.99 31.1195 18.93 31.7595 20.13C32.4195 21.31 32.7495 22.65 32.7495 24.15ZM29.9295 23.58C29.9295 22.54 29.6995 21.65 29.2395 20.91C28.7795 20.15 28.1495 19.58 27.3495 19.2C26.5695 18.8 25.6995 18.6 24.7395 18.6C23.3595 18.6 22.1795 19.04 21.1995 19.92C20.2395 20.8 19.6895 22.02 19.5495 23.58H29.9295ZM22.3095 14.34C21.8695 14.34 21.4895 14.19 21.1695 13.89C20.8695 13.59 20.7195 13.22 20.7195 12.78C20.7195 12.34 20.8695 11.97 21.1695 11.67C21.4895 11.35 21.8695 11.19 22.3095 11.19C22.7295 11.19 23.0895 11.35 23.3895 11.67C23.7095 11.97 23.8695 12.34 23.8695 12.78C23.8695 13.22 23.7095 13.59 23.3895 13.89C23.0895 14.19 22.7295 14.34 22.3095 14.34ZM27.1695 14.34C26.7295 14.34 26.3595 14.19 26.0595 13.89C25.7595 13.59 25.6095 13.22 25.6095 12.78C25.6095 12.34 25.7595 11.97 26.0595 11.67C26.3595 11.35 26.7295 11.19 27.1695 11.19C27.6095 11.19 27.9795 11.35 28.2795 11.67C28.5995 11.97 28.7595 12.34 28.7595 12.78C28.7595 13.22 28.5995 13.59 28.2795 13.89C27.9795 14.19 27.6095 14.34 27.1695 14.34ZM39.083 19.23C39.563 18.29 40.243 17.56 41.123 17.04C42.023 16.52 43.113 16.26 44.393 16.26V19.08H43.673C40.613 19.08 39.083 20.74 39.083 24.06V33H36.353V16.56H39.083V19.23ZM56.7244 33L50.2744 25.74V33H47.5444V10.8H50.2744V23.85L56.6044 16.56H60.4144L52.6744 24.75L60.4444 33H56.7244ZM77.5638 16.56V33H74.8338V30.57C74.3138 31.41 73.5838 32.07 72.6438 32.55C71.7238 33.01 70.7038 33.24 69.5838 33.24C68.3038 33.24 67.1538 32.98 66.1338 32.46C65.1138 31.92 64.3038 31.12 63.7038 30.06C63.1238 29 62.8338 27.71 62.8338 26.19V16.56H65.5338V25.83C65.5338 27.45 65.9438 28.7 66.7638 29.58C67.5838 30.44 68.7038 30.87 70.1238 30.87C71.5838 30.87 72.7338 30.42 73.5738 29.52C74.4138 28.62 74.8338 27.31 74.8338 25.59V16.56H77.5638ZM97.1733 24.15C97.1733 24.67 97.1433 25.22 97.0833 25.8H83.9433C84.0433 27.42 84.5933 28.69 85.5933 29.61C86.6133 30.51 87.8433 30.96 89.2833 30.96C90.4633 30.96 91.4433 30.69 92.2233 30.15C93.0233 29.59 93.5833 28.85 93.9033 27.93H96.8433C96.4033 29.51 95.5233 30.8 94.2033 31.8C92.8833 32.78 91.2433 33.27 89.2833 33.27C87.7233 33.27 86.3233 32.92 85.0833 32.22C83.8633 31.52 82.9033 30.53 82.2033 29.25C81.5033 27.95 81.1533 26.45 81.1533 24.75C81.1533 23.05 81.4933 21.56 82.1733 20.28C82.8533 19 83.8033 18.02 85.0233 17.34C86.2633 16.64 87.6833 16.29 89.2833 16.29C90.8433 16.29 92.2233 16.63 93.4233 17.31C94.6233 17.99 95.5433 18.93 96.1833 20.13C96.8433 21.31 97.1733 22.65 97.1733 24.15ZM94.3533 23.58C94.3533 22.54 94.1233 21.65 93.6633 20.91C93.2033 20.15 92.5733 19.58 91.7733 19.2C90.9933 18.8 90.1233 18.6 89.1633 18.6C87.7833 18.6 86.6033 19.04 85.6233 19.92C84.6633 20.8 84.1133 22.02 83.9733 23.58H94.3533ZM106.597 33.27C105.337 33.27 104.207 33.06 103.207 32.64C102.207 32.2 101.417 31.6 100.837 30.84C100.257 30.06 99.9368 29.17 99.8768 28.17H102.697C102.777 28.99 103.157 29.66 103.837 30.18C104.537 30.7 105.447 30.96 106.567 30.96C107.607 30.96 108.427 30.73 109.027 30.27C109.627 29.81 109.927 29.23 109.927 28.53C109.927 27.81 109.607 27.28 108.967 26.94C108.327 26.58 107.337 26.23 105.997 25.89C104.777 25.57 103.777 25.25 102.997 24.93C102.237 24.59 101.577 24.1 101.017 23.46C100.477 22.8 100.207 21.94 100.207 20.88C100.207 20.04 100.457 19.27 100.957 18.57C101.457 17.87 102.167 17.32 103.087 16.92C104.007 16.5 105.057 16.29 106.237 16.29C108.057 16.29 109.527 16.75 110.647 17.67C111.767 18.59 112.367 19.85 112.447 21.45H109.717C109.657 20.59 109.307 19.9 108.667 19.38C108.047 18.86 107.207 18.6 106.147 18.6C105.167 18.6 104.387 18.81 103.807 19.23C103.227 19.65 102.937 20.2 102.937 20.88C102.937 21.42 103.107 21.87 103.447 22.23C103.807 22.57 104.247 22.85 104.767 23.07C105.307 23.27 106.047 23.5 106.987 23.76C108.167 24.08 109.127 24.4 109.867 24.72C110.607 25.02 111.237 25.48 111.757 26.1C112.297 26.72 112.577 27.53 112.597 28.53C112.597 29.43 112.347 30.24 111.847 30.96C111.347 31.68 110.637 32.25 109.717 32.67C108.817 33.07 107.777 33.27 106.597 33.27ZM117.861 13.89C117.341 13.89 116.901 13.71 116.541 13.35C116.181 12.99 116.001 12.55 116.001 12.03C116.001 11.51 116.181 11.07 116.541 10.71C116.901 10.35 117.341 10.17 117.861 10.17C118.361 10.17 118.781 10.35 119.121 10.71C119.481 11.07 119.661 11.51 119.661 12.03C119.661 12.55 119.481 12.99 119.121 13.35C118.781 13.71 118.361 13.89 117.861 13.89ZM119.181 16.56V33H116.451V16.56H119.181Z" fill="#3BC6C5"/>
<g clip-path="url(#clip0)">
<path d="M157.169 8.94205C152.093 3.7028 143.853 3.69098 138.763 8.91577C133.852 13.9571 133.644 22.077 138.291 27.3776L137.297 28.4007C136.494 27.574 135.192 27.5738 134.389 28.4004C134.389 28.4005 134.388 28.4006 134.388 28.4007L127.602 35.3863C126.799 36.2129 126.799 37.5532 127.602 38.3799C127.602 38.38 127.602 38.3801 127.602 38.3802L128.572 39.3779C129.375 40.2043 130.676 40.2043 131.479 39.3779L138.265 32.3923C139.068 31.5657 139.069 30.2254 138.266 29.3987C138.265 29.3986 138.265 29.3985 138.265 29.3984L139.259 28.3753C144.592 33.3364 152.822 32.9078 157.641 27.4182C162.296 22.1156 162.088 13.9851 157.169 8.94205ZM137.297 31.3939L130.511 38.3795C130.243 38.6549 129.809 38.6549 129.542 38.3795L128.572 37.381C128.305 37.1056 128.305 36.6594 128.572 36.384L135.358 29.3984C135.629 29.1316 136.056 29.1316 136.328 29.3984L137.297 30.3969C137.564 30.6723 137.564 31.1185 137.297 31.3939ZM156.2 26.9041C151.649 31.5885 144.271 31.5884 139.721 26.9038C135.17 22.2193 135.17 14.6242 139.721 9.93979C144.272 5.2555 151.649 5.2555 156.2 9.93979C160.743 14.6275 160.743 22.2164 156.2 26.9041Z" fill="#3BC6C5"/>
<path d="M155.23 10.9363L154.261 11.934C157.735 15.5189 157.735 21.3218 154.261 24.9067L155.23 25.9044C159.24 21.7687 159.24 15.072 155.23 10.9363Z" fill="#3BC6C5"/>
</g>
<defs>
<clipPath id="clip0">
<rect width="34" height="35" fill="white" transform="translate(127 5)"/>
</clipPath>
</defs>
</svg>
